<mxfile host="Electron" modified="2024-06-06T21:06:45.353Z" agent="Mozilla/5.0 (Windows NT 10.0; Win64; x64) AppleWebKit/537.36 (KHTML, like Gecko) draw.io/24.4.13 Chrome/124.0.6367.207 Electron/30.0.6 Safari/537.36" etag="968GhHpWEl4Ace-KuXyr" version="24.4.13" type="device">
  <diagram name="Página-1" id="r0rzfhpv2rKXBuu__LUH">
    <mxGraphModel dx="864" dy="1685" grid="1" gridSize="10" guides="1" tooltips="1" connect="1" arrows="1" fold="1" page="1" pageScale="1" pageWidth="827" pageHeight="1169" math="0" shadow="0">
      <root>
        <mxCell id="0" />
        <mxCell id="1" parent="0" />
        <mxCell id="2LvcPmaoCwBBIdkUvvJG-1" value="" style="whiteSpace=wrap;html=1;aspect=fixed;" parent="1" vertex="1">
          <mxGeometry x="179" y="30" width="470" height="470" as="geometry" />
        </mxCell>
        <mxCell id="2LvcPmaoCwBBIdkUvvJG-7" style="edgeStyle=orthogonalEdgeStyle;rounded=0;orthogonalLoop=1;jettySize=auto;html=1;exitX=1;exitY=0.3333333333333333;exitDx=0;exitDy=0;exitPerimeter=0;entryX=0;entryY=0.5;entryDx=0;entryDy=0;endArrow=none;endFill=0;" parent="1" source="2LvcPmaoCwBBIdkUvvJG-2" target="2LvcPmaoCwBBIdkUvvJG-11" edge="1">
          <mxGeometry relative="1" as="geometry">
            <mxPoint x="250" y="130" as="targetPoint" />
          </mxGeometry>
        </mxCell>
        <mxCell id="2LvcPmaoCwBBIdkUvvJG-2" value="Cliente&lt;div&gt;&lt;br&gt;&lt;/div&gt;" style="shape=umlActor;verticalLabelPosition=bottom;verticalAlign=top;html=1;outlineConnect=0;" parent="1" vertex="1">
          <mxGeometry x="110" y="110" width="30" height="60" as="geometry" />
        </mxCell>
        <mxCell id="2LvcPmaoCwBBIdkUvvJG-12" style="edgeStyle=orthogonalEdgeStyle;rounded=0;orthogonalLoop=1;jettySize=auto;html=1;exitX=0;exitY=0.3333333333333333;exitDx=0;exitDy=0;exitPerimeter=0;entryX=1;entryY=0.5;entryDx=0;entryDy=0;endArrow=none;endFill=0;" parent="1" source="2LvcPmaoCwBBIdkUvvJG-8" target="2LvcPmaoCwBBIdkUvvJG-11" edge="1">
          <mxGeometry relative="1" as="geometry" />
        </mxCell>
        <mxCell id="2LvcPmaoCwBBIdkUvvJG-16" style="edgeStyle=orthogonalEdgeStyle;rounded=0;orthogonalLoop=1;jettySize=auto;html=1;exitX=0;exitY=1;exitDx=0;exitDy=0;exitPerimeter=0;endArrow=none;endFill=0;entryX=1;entryY=0.5;entryDx=0;entryDy=0;" parent="1" source="2LvcPmaoCwBBIdkUvvJG-8" target="2LvcPmaoCwBBIdkUvvJG-15" edge="1">
          <mxGeometry relative="1" as="geometry" />
        </mxCell>
        <mxCell id="2LvcPmaoCwBBIdkUvvJG-31" style="edgeStyle=orthogonalEdgeStyle;rounded=0;orthogonalLoop=1;jettySize=auto;html=1;exitX=0.25;exitY=0.1;exitDx=0;exitDy=0;exitPerimeter=0;entryX=1;entryY=0.5;entryDx=0;entryDy=0;endArrow=none;endFill=0;" parent="1" source="2LvcPmaoCwBBIdkUvvJG-18" target="2LvcPmaoCwBBIdkUvvJG-30" edge="1">
          <mxGeometry relative="1" as="geometry">
            <Array as="points">
              <mxPoint x="690" y="366" />
              <mxPoint x="690" y="280" />
            </Array>
          </mxGeometry>
        </mxCell>
        <mxCell id="2LvcPmaoCwBBIdkUvvJG-8" value="&lt;div&gt;Técnico&lt;/div&gt;" style="shape=umlActor;verticalLabelPosition=bottom;verticalAlign=top;html=1;outlineConnect=0;" parent="1" vertex="1">
          <mxGeometry x="710" y="55" width="30" height="60" as="geometry" />
        </mxCell>
        <mxCell id="2LvcPmaoCwBBIdkUvvJG-11" value="Abrir ordem de serviço" style="ellipse;whiteSpace=wrap;html=1;" parent="1" vertex="1">
          <mxGeometry x="359" y="35" width="110" height="80" as="geometry" />
        </mxCell>
        <mxCell id="2LvcPmaoCwBBIdkUvvJG-15" value="Dar baixa na ordem de serviço" style="ellipse;whiteSpace=wrap;html=1;" parent="1" vertex="1">
          <mxGeometry x="369" y="140" width="100" height="70" as="geometry" />
        </mxCell>
        <mxCell id="2LvcPmaoCwBBIdkUvvJG-26" style="edgeStyle=orthogonalEdgeStyle;rounded=0;orthogonalLoop=1;jettySize=auto;html=1;exitX=0;exitY=0.3333333333333333;exitDx=0;exitDy=0;exitPerimeter=0;entryX=1;entryY=0.5;entryDx=0;entryDy=0;endArrow=none;endFill=0;" parent="1" source="2LvcPmaoCwBBIdkUvvJG-18" target="2LvcPmaoCwBBIdkUvvJG-23" edge="1">
          <mxGeometry relative="1" as="geometry" />
        </mxCell>
        <mxCell id="2LvcPmaoCwBBIdkUvvJG-29" style="edgeStyle=orthogonalEdgeStyle;rounded=0;orthogonalLoop=1;jettySize=auto;html=1;exitX=0;exitY=1;exitDx=0;exitDy=0;exitPerimeter=0;entryX=0.5;entryY=1;entryDx=0;entryDy=0;endArrow=none;endFill=0;" parent="1" source="2LvcPmaoCwBBIdkUvvJG-18" target="2LvcPmaoCwBBIdkUvvJG-27" edge="1">
          <mxGeometry relative="1" as="geometry">
            <mxPoint x="690" y="460" as="sourcePoint" />
            <mxPoint x="464" y="500" as="targetPoint" />
            <Array as="points">
              <mxPoint x="690" y="510" />
              <mxPoint x="464" y="510" />
              <mxPoint x="464" y="490" />
            </Array>
          </mxGeometry>
        </mxCell>
        <mxCell id="2LvcPmaoCwBBIdkUvvJG-18" value="Gerente" style="shape=umlActor;verticalLabelPosition=bottom;verticalAlign=top;html=1;outlineConnect=0;" parent="1" vertex="1">
          <mxGeometry x="690" y="360" width="30" height="60" as="geometry" />
        </mxCell>
        <mxCell id="2LvcPmaoCwBBIdkUvvJG-23" value="Gerenciar técnicos" style="ellipse;whiteSpace=wrap;html=1;" parent="1" vertex="1">
          <mxGeometry x="480" y="370" width="120" height="80" as="geometry" />
        </mxCell>
        <mxCell id="2LvcPmaoCwBBIdkUvvJG-25" style="edgeStyle=orthogonalEdgeStyle;rounded=0;orthogonalLoop=1;jettySize=auto;html=1;entryX=0.5;entryY=0;entryDx=0;entryDy=0;entryPerimeter=0;exitX=1;exitY=1;exitDx=0;exitDy=0;exitPerimeter=0;" parent="1" source="2LvcPmaoCwBBIdkUvvJG-8" target="2LvcPmaoCwBBIdkUvvJG-18" edge="1">
          <mxGeometry relative="1" as="geometry">
            <mxPoint x="750" y="200" as="sourcePoint" />
          </mxGeometry>
        </mxCell>
        <mxCell id="2LvcPmaoCwBBIdkUvvJG-27" value="Gerenciar ferramentas" style="ellipse;whiteSpace=wrap;html=1;" parent="1" vertex="1">
          <mxGeometry x="300" y="360" width="120" height="80" as="geometry" />
        </mxCell>
        <mxCell id="2LvcPmaoCwBBIdkUvvJG-30" value="Gerenciar ordens de serviço" style="ellipse;whiteSpace=wrap;html=1;" parent="1" vertex="1">
          <mxGeometry x="440" y="260" width="116" height="80" as="geometry" />
        </mxCell>
        <mxCell id="2LvcPmaoCwBBIdkUvvJG-32" value="&lt;font style=&quot;font-size: 17px;&quot;&gt;DIAGRAMA DE CASO DE USO SISTEMA DE CONTROLE DA ELETROTÉCNICA&lt;/font&gt;" style="text;html=1;align=center;verticalAlign=middle;whiteSpace=wrap;rounded=0;" parent="1" vertex="1">
          <mxGeometry x="244" y="-30" width="340" height="70" as="geometry" />
        </mxCell>
      </root>
    </mxGraphModel>
  </diagram>
</mxfile>
